Normalized EMG Linear Envelopes
nRows=243
nColumns=4

endheader
time	 med_gas_r	  soleus_r	 tib_ant_r	
3.39293	  0.096327	  0.144628	  0.060118	
3.42619	  0.096559	  0.142452	  0.060403	
3.45946	  0.097133	  0.139573	  0.060680	
3.49272	  0.097783	  0.137595	  0.060725	
3.52598	  0.098518	  0.137422	  0.060844	
3.55925	  0.099511	  0.139215	  0.061189	
3.59251	  0.100775	  0.142641	  0.061642	
3.62578	  0.102073	  0.146339	  0.062201	
3.65904	  0.103566	  0.149578	  0.062655	
3.6923	  0.105882	  0.152913	  0.062969	
3.72557	  0.109065	  0.156554	  0.063752	
3.75883	  0.112257	  0.160674	  0.065481	
3.7921	  0.114129	  0.164902	  0.068243	
3.82536	  0.113988	  0.168155	  0.071633	
3.85862	  0.112197	  0.168369	  0.075056	
3.89189	  0.109561	  0.164870	  0.078125	
3.92515	  0.106660	  0.159481	  0.080735	
3.95842	  0.103731	  0.154377	  0.082746	
3.99168	  0.100907	  0.150375	  0.083994	
4.02494	  0.098652	  0.147515	  0.084826	
4.05821	  0.097000	  0.145226	  0.085499	
4.09147	  0.095704	  0.143584	  0.086380	
4.12474	  0.094818	  0.143512	  0.087383	
4.158	  0.094566	  0.145462	  0.088163	
4.19126	  0.094857	  0.149506	  0.088225	
4.22453	  0.095501	  0.154707	  0.087066	
4.25779	  0.096265	  0.158939	  0.085009	
4.29106	  0.096970	  0.160133	  0.082770	
4.32432	  0.097721	  0.159565	  0.080827	
4.35758	  0.098612	  0.158719	  0.080161	
4.39085	  0.099513	  0.158251	  0.082414	
4.42411	  0.100539	  0.157643	  0.089246	
4.45738	  0.101968	  0.156358	  0.102561	
4.49064	  0.104461	  0.155522	  0.124766	
4.5239	  0.108895	  0.155446	  0.158129	
4.55717	  0.116193	  0.155585	  0.204081	
4.59043	  0.126968	  0.155822	  0.263183	
4.6237	  0.141680	  0.156854	  0.334653	
4.65696	  0.160232	  0.159611	  0.414886	
4.69022	  0.181847	  0.164693	  0.499008	
4.72349	  0.205860	  0.172157	  0.580374	
4.75675	  0.230857	  0.180611	  0.650398	
4.79002	  0.253657	  0.187868	  0.698950	
4.82328	  0.271492	  0.192087	  0.725817	
4.85654	  0.283574	  0.192437	  0.737371	
4.88981	  0.291129	  0.189546	  0.740534	
4.92307	  0.295623	  0.184579	  0.742922	
4.95634	  0.299098	  0.180000	  0.746556	
4.9896	  0.303144	  0.177177	  0.747630	
5.02286	  0.307836	  0.175530	  0.742196	
5.05613	  0.311807	  0.174145	  0.727420	
5.08939	  0.314675	  0.172958	  0.704358	
5.12266	  0.316867	  0.172833	  0.680010	
5.15592	  0.318649	  0.174012	  0.660356	
5.18918	  0.319783	  0.175817	  0.652067	
5.22245	  0.319924	  0.178133	  0.655376	
5.25571	  0.318854	  0.181521	  0.664654	
5.28898	  0.317638	  0.185409	  0.674228	
5.32224	  0.316222	  0.188970	  0.679125	
5.3555	  0.314531	  0.191818	  0.677488	
5.38877	  0.314306	  0.193687	  0.667644	
5.42203	  0.315977	  0.193498	  0.649052	
5.4553	  0.317864	  0.190328	  0.623616	
5.48856	  0.319196	  0.184416	  0.597887	
5.52182	  0.318646	  0.177041	  0.575787	
5.55509	  0.314517	  0.168822	  0.557626	
5.58835	  0.307261	  0.160358	  0.544499	
5.62162	  0.297909	  0.152811	  0.535731	
5.65488	  0.287642	  0.147411	  0.528261	
5.68814	  0.277709	  0.144739	  0.520033	
5.72141	  0.269097	  0.144981	  0.511749	
5.75467	  0.262783	  0.148023	  0.506843	
5.78794	  0.259652	  0.153272	  0.509272	
5.8212	  0.259507	  0.159688	  0.518308	
5.85446	  0.262347	  0.165629	  0.529232	
5.88773	  0.268418	  0.169807	  0.536188	
5.92099	  0.276891	  0.172256	  0.538697	
5.95426	  0.285507	  0.174580	  0.537511	
5.98752	  0.292034	  0.178147	  0.532791	
6.02078	  0.296045	  0.183524	  0.525518	
6.05405	  0.298410	  0.190805	  0.513884	
6.08731	  0.299088	  0.198888	  0.497687	
6.12058	  0.298291	  0.205961	  0.479325	
6.15384	  0.296817	  0.210220	  0.460978	
6.1871	  0.296023	  0.211226	  0.446206	
6.22037	  0.295886	  0.209623	  0.437655	
6.25363	  0.295994	  0.206366	  0.434838	
6.2869	  0.295552	  0.202640	  0.435635	
6.32016	  0.294467	  0.199566	  0.439020	
6.35342	  0.294257	  0.196856	  0.443429	
6.38669	  0.296012	  0.194329	  0.445611	
6.41995	  0.300098	  0.191951	  0.441788	
6.45322	  0.306924	  0.190129	  0.431325	
6.48648	  0.314436	  0.188917	  0.416291	
6.51974	  0.321251	  0.187777	  0.402577	
6.55301	  0.326313	  0.186445	  0.395731	
6.58627	  0.328667	  0.184637	  0.396066	
6.61954	  0.328274	  0.182802	  0.402735	
6.6528	  0.325333	  0.182755	  0.414584	
6.68606	  0.321402	  0.184828	  0.426522	
6.71933	  0.317037	  0.188278	  0.432377	
6.75259	  0.312266	  0.193232	  0.429961	
6.78586	  0.308621	  0.200163	  0.419696	
6.81912	  0.307882	  0.208723	  0.403910	
6.85238	  0.309321	  0.218750	  0.389434	
6.88565	  0.311966	  0.230088	  0.380774	
6.91891	  0.316466	  0.242683	  0.376736	
6.95218	  0.321594	  0.256102	  0.373335	
6.98544	  0.325505	  0.269044	  0.370498	
7.0187	  0.328088	  0.279346	  0.368890	
7.05197	  0.331242	  0.284045	  0.367222	
7.08523	  0.335488	  0.281826	  0.363337	
7.1185	  0.340751	  0.274673	  0.354811	
7.15176	  0.345113	  0.266264	  0.341282	
7.18502	  0.346834	  0.260319	  0.324534	
7.21829	  0.346602	  0.259020	  0.307817	
7.25155	  0.347038	  0.262908	  0.294051	
7.28482	  0.349379	  0.270371	  0.284188	
7.31808	  0.353727	  0.279767	  0.276758	
7.35134	  0.359141	  0.291328	  0.271273	
7.38461	  0.363696	  0.304535	  0.268003	
7.41787	  0.366970	  0.318224	  0.265189	
7.45114	  0.369093	  0.331299	  0.259804	
7.4844	  0.368207	  0.341338	  0.253701	
7.51766	  0.364102	  0.344570	  0.249495	
7.55093	  0.357849	  0.341576	  0.246920	
7.58419	  0.350497	  0.336633	  0.245277	
7.61746	  0.343351	  0.332971	  0.245093	
7.65072	  0.337492	  0.333005	  0.246878	
7.68398	  0.334648	  0.337756	  0.251290	
7.71725	  0.335194	  0.347618	  0.258614	
7.75051	  0.337644	  0.360690	  0.267060	
7.78378	  0.340156	  0.374014	  0.273784	
7.81704	  0.341197	  0.384420	  0.277422	
7.8503	  0.340447	  0.390013	  0.277679	
7.88357	  0.337400	  0.389972	  0.273993	
7.91683	  0.332510	  0.384709	  0.267366	
7.9501	  0.326794	  0.375655	  0.260935	
7.98336	  0.321359	  0.364508	  0.256995	
8.01662	  0.317166	  0.354647	  0.255801	
8.04989	  0.314220	  0.349907	  0.255741	
8.08315	  0.311593	  0.351127	  0.255967	
8.11642	  0.309328	  0.355494	  0.255748	
8.14968	  0.307513	  0.359319	  0.254187	
8.18294	  0.306857	  0.363091	  0.250138	
8.21621	  0.308472	  0.368327	  0.244194	
8.24947	  0.312067	  0.375504	  0.238135	
8.28274	  0.316834	  0.383789	  0.233826	
8.316	  0.322498	  0.395255	  0.232337	
8.34926	  0.328188	  0.411864	  0.233364	
8.38253	  0.334094	  0.432947	  0.236525	
8.41579	  0.341932	  0.455868	  0.241185	
8.44906	  0.351303	  0.477206	  0.245922	
8.48232	  0.360978	  0.497705	  0.248711	
8.51558	  0.369425	  0.516655	  0.248399	
8.54885	  0.373009	  0.530622	  0.246386	
8.58211	  0.371747	  0.537605	  0.244280	
8.61538	  0.370458	  0.537458	  0.243380	
8.64864	  0.372155	  0.530290	  0.245239	
8.6819	  0.377418	  0.516497	  0.249454	
8.71517	  0.384644	  0.497960	  0.255261	
8.74843	  0.391140	  0.477385	  0.262443	
8.7817	  0.396983	  0.457448	  0.269954	
8.81496	  0.403815	  0.441333	  0.276709	
8.84822	  0.410878	  0.432640	  0.281154	
8.88149	  0.415282	  0.431162	  0.282846	
8.91475	  0.414967	  0.433823	  0.281690	
8.94802	  0.412815	  0.435897	  0.278852	
8.98128	  0.411807	  0.436846	  0.275266	
9.01454	  0.412477	  0.436651	  0.269935	
9.04781	  0.412745	  0.435130	  0.263821	
9.08107	  0.409700	  0.433323	  0.257724	
9.11434	  0.405042	  0.433541	  0.251032	
9.1476	  0.402354	  0.437837	  0.243333	
9.18086	  0.403712	  0.445348	  0.235532	
9.21413	  0.407531	  0.455998	  0.228679	
9.24739	  0.411087	  0.470651	  0.223150	
9.28066	  0.413909	  0.489672	  0.219348	
9.31392	  0.415822	  0.511067	  0.217945	
9.34718	  0.417034	  0.532523	  0.219144	
9.38045	  0.417954	  0.553240	  0.222651	
9.41371	  0.419562	  0.571683	  0.227590	
9.44698	  0.422592	  0.587618	  0.232693	
9.48024	  0.425781	  0.602519	  0.237466	
9.5135	  0.427417	  0.615218	  0.241959	
9.54677	  0.427544	  0.622223	  0.245326	
9.58003	  0.425817	  0.622562	  0.246690	
9.6133	  0.422471	  0.619835	  0.246080	
9.64656	  0.417912	  0.615611	  0.244582	
9.67982	  0.412177	  0.608584	  0.243562	
9.71309	  0.406214	  0.599866	  0.242559	
9.74635	  0.400877	  0.590840	  0.241974	
9.77962	  0.395364	  0.580972	  0.242460	
9.81288	  0.390220	  0.570147	  0.245011	
9.84614	  0.386875	  0.562123	  0.250423	
9.87941	  0.384879	  0.558313	  0.258475	
9.91267	  0.382232	  0.557982	  0.267383	
9.94594	  0.379412	  0.558264	  0.275592	
9.9792	  0.379064	  0.556388	  0.282820	
10.0125	  0.382748	  0.551441	  0.287946	
10.0457	  0.389267	  0.543048	  0.290740	
10.079	  0.396613	  0.532237	  0.290167	
10.1123	  0.404180	  0.520520	  0.285869	
10.1455	  0.410025	  0.511207	  0.279323	
10.1788	  0.411047	  0.506563	  0.270945	
10.212	  0.408222	  0.505968	  0.261591	
10.2453	  0.406317	  0.508485	  0.252083	
10.2786	  0.406835	  0.511515	  0.242911	
10.3118	  0.407883	  0.512393	  0.234790	
10.3451	  0.406660	  0.507620	  0.229094	
10.3784	  0.403116	  0.496984	  0.226863	
10.4116	  0.397098	  0.483177	  0.226547	
10.4449	  0.387621	  0.466078	  0.226668	
10.4782	  0.373903	  0.441983	  0.226224	
10.5114	  0.357367	  0.409473	  0.224636	
10.5447	  0.340805	  0.373952	  0.221909	
10.578	  0.326415	  0.341761	  0.218539	
10.6112	  0.315475	  0.316456	  0.215583	
10.6445	  0.308702	  0.298622	  0.214061	
10.6777	  0.306704	  0.287180	  0.213142	
10.711	  0.308347	  0.281046	  0.212071	
10.7443	  0.310033	  0.277600	  0.211429	
10.7775	  0.310272	  0.274527	  0.211038	
10.8108	  0.310170	  0.271488	  0.209717	
10.8441	  0.310221	  0.267646	  0.206651	
10.8773	  0.309445	  0.262804	  0.203621	
10.9106	  0.306526	  0.256425	  0.202720	
10.9439	  0.301804	  0.249373	  0.203256	
10.9771	  0.295266	  0.243401	  0.204722	
11.0104	  0.288188	  0.239995	  0.207388	
11.0436	  0.282173	  0.239199	  0.209476	
11.0769	  0.276931	  0.239556	  0.208792	
11.1102	  0.272324	  0.241329	  0.206553	
11.1434	  0.270482	  0.244779	  0.204755	
11.1767	  0.270850	  0.248691	  0.204096	
11.21	  0.272335	  0.250491	  0.205025	
11.2432	  0.273879	  0.247917	  0.207509	
11.2765	  0.276501	  0.241024	  0.210898	
11.3098	  0.279831	  0.231862	  0.214417	
11.343	  0.280145	  0.223311	  0.217556	
11.3763	  0.274632	  0.217054	  0.219373	
11.4096	  0.263540	  0.212822	  0.219636	
11.4428	  0.250784	  0.210466	  0.219128	
